<svg width="40" height="40" viewBox="0 0 40 40" fill="none" xmlns="http://www.w3.org/2000/svg">
  <rect width="40" height="40" rx="8" fill="#6B7280"/>
  <path d="M12 16C12 13.7909 13.7909 12 16 12C18.2091 12 20 13.7909 20 16C20 18.2091 18.2091 20 16 20C13.7909 20 12 18.2091 12 16Z" fill="#9CA3AF"/>
  <path d="M20 16C20 13.7909 21.7909 12 24 12C26.2091 12 28 13.7909 28 16C28 18.2091 26.2091 20 24 20C21.7909 20 20 18.2091 20 16Z" fill="#9CA3AF"/>
  <path d="M8 28C8 24.6863 10.6863 22 14 22H18C21.3137 22 24 24.6863 24 28V30H8V28Z" fill="#9CA3AF"/>
  <path d="M16 28C16 24.6863 18.6863 22 22 22H26C29.3137 22 32 24.6863 32 28V30H16V28Z" fill="#9CA3AF"/>
</svg>
